<svg width="181" height="80" viewBox="0 0 181 80" fill="none" xmlns="http://www.w3.org/2000/svg">
<g clip-path="url(#clip0_1_314)">
<path d="M179.098 43.6161C178.712 43.5143 178.347 43.6161 178.022 43.8197C177.697 44.0233 177.413 44.3286 177.17 44.6951C176.946 45.0819 176.723 45.4483 176.52 45.8554C176.317 46.2422 176.175 46.568 176.033 46.8326C175.444 47.9116 174.795 49.0109 174.145 50.1102C173.496 51.1891 172.785 52.2477 172.054 53.2452C171.75 53.6728 171.384 54.202 170.918 54.7721C170.451 55.3624 169.984 55.8917 169.497 56.3396C168.989 56.8078 168.482 57.1335 167.934 57.3575C167.386 57.561 166.878 57.561 166.411 57.276C166.147 57.1335 165.985 56.9096 165.944 56.6042C165.904 56.2785 165.904 55.9121 165.944 55.5253C166.026 55.1385 166.107 54.7517 166.208 54.3853C166.31 54.0188 166.411 53.7338 166.492 53.4895C166.838 52.3699 167.243 51.2706 167.71 50.1713C168.157 49.0923 168.685 48.0337 169.233 46.9751C170.106 45.2651 171.06 43.6161 172.095 41.9672C173.15 40.3385 174.226 38.7507 175.363 37.1628C176.013 36.2874 176.277 35.412 176.094 34.5366C175.911 33.6409 175.505 32.8877 174.876 32.2769C174.247 31.6866 173.475 31.2998 172.562 31.1776C171.648 31.0351 170.796 31.3201 169.964 31.9512C169.375 32.4398 168.786 33.0912 168.258 33.9463C167.731 34.8013 167.101 35.8599 166.31 37.1221C165.579 37.3663 164.706 37.5292 163.752 37.5903C162.778 37.631 161.864 37.5088 161.052 37.2646C162.209 34.9031 163.245 32.4805 164.178 30.0173C164.564 28.979 164.503 27.9408 163.996 26.9229C163.448 25.905 162.636 25.2536 161.499 24.9889C160.545 24.7446 159.631 24.8464 158.738 25.3554C157.845 25.8643 157.094 26.5158 156.526 27.3708C155.957 28.2258 155.551 29.1622 155.348 30.2208C155.166 31.2591 155.247 32.2566 155.632 33.1523C155.896 33.7631 156.221 34.5163 156.607 35.3713C156.993 36.2467 157.196 37.0203 157.196 37.7124C157.196 37.9771 157.074 38.3231 156.891 38.7914C156.708 39.2189 156.505 39.6667 156.262 40.135L155.998 40.4403C155.815 40.7253 155.653 41.0103 155.45 41.3157C154.151 43.494 152.669 45.6112 151.025 47.6673C149.401 49.7234 147.493 51.4131 145.341 52.777C144.468 53.3063 143.473 53.7745 142.337 54.2224C141.22 54.6499 140.124 54.8738 139.089 54.8942C138.054 54.9349 137.12 54.6703 136.308 54.1003C135.476 53.5303 134.948 52.5531 134.704 51.1077C134.562 50.3748 134.522 49.5402 134.623 48.5834C136.125 48.5834 137.688 48.5426 139.332 48.4612C140.977 48.3798 142.56 48.1762 144.062 47.8098C145.585 47.4637 146.985 46.853 148.284 46.059C149.604 45.2244 150.639 44.0233 151.471 42.4354C152.385 40.7253 152.811 39.056 152.709 37.346C152.608 35.6563 152.08 33.987 151.106 32.2769C149.807 30.0173 148.203 28.5312 146.295 27.8186C144.407 27.1265 142.154 26.9433 139.535 27.269C137.851 27.5133 136.348 28.0629 135.07 28.9383C133.771 29.8137 132.613 30.8723 131.599 32.1344C130.604 33.3966 129.751 34.7606 129.041 36.2467C128.351 37.7531 127.803 39.2392 127.417 40.7253C127.173 41.6821 126.991 42.5982 126.889 43.5347C126.747 43.7383 126.646 43.9215 126.524 44.125C125.793 45.3058 125.022 46.5069 124.23 47.6876C123.905 48.1966 123.337 48.9905 122.545 50.0695C121.754 51.1281 120.881 52.1866 119.967 53.2045C119.033 54.202 118.1 55.0571 117.125 55.7289C116.171 56.4007 115.339 56.6246 114.608 56.3192C114.081 56.136 113.959 55.4642 114.141 54.2428C114.344 53.0213 114.771 51.4945 115.461 49.6623C116.151 47.8301 116.983 45.7333 118.019 43.3922C119.054 41.0511 120.15 38.6285 121.307 36.206C122.464 33.7223 123.641 31.3405 124.819 28.9994C125.996 26.6583 127.092 24.5207 128.107 22.6071C130.624 22.485 133.243 22.1185 135.882 21.5078C138.52 20.8971 141.2 20.1031 143.9 19.1463C144.57 18.9224 145.28 18.6374 146.031 18.332C146.762 18.0267 147.452 17.6602 148.142 17.2327C148.812 16.8052 149.441 16.3166 149.969 15.7466C150.497 15.1766 150.842 14.5048 151.004 13.7108C151.228 12.8151 151.207 11.9601 150.964 11.1458C150.72 10.3111 150.314 9.61897 149.746 9.00825C149.157 8.41788 148.467 8.01073 147.655 7.72572C146.843 7.48143 145.97 7.44072 145.077 7.60358C143.961 7.86822 142.844 8.51967 141.768 9.45611C140.672 10.4129 139.637 11.2069 138.683 11.838C137.546 12.5098 136.43 13.1612 135.293 13.7923C134.176 14.403 133.019 14.973 131.842 15.482C132.35 14.2401 132.35 13.0798 131.842 12.0212C131.335 10.9422 130.584 10.1279 129.65 9.5579C128.675 8.96753 127.62 8.7436 126.422 8.82503C125.245 8.92682 124.23 9.49683 123.398 10.5758C122.789 11.3697 122.2 12.3469 121.693 13.5276C121.185 14.7287 120.515 16.337 119.663 18.3727H118.039C117.531 18.3727 117.044 18.3117 116.537 18.1895C115.968 18.1488 115.501 18.2506 115.136 18.5356C114.791 18.8206 114.547 19.1667 114.426 19.5942C114.304 20.0217 114.324 20.4492 114.466 20.9174C114.629 21.3653 114.933 21.7114 115.441 21.9149C115.704 22.0982 116.05 22.2 116.435 22.261C116.841 22.3221 117.227 22.3832 117.633 22.4239C115.765 26.6175 114.121 30.3226 112.68 33.5188C111.421 36.3688 110.366 39.1578 109.534 41.9672L109.31 42.0486C108.965 42.2114 108.722 42.415 108.559 42.7C108.377 42.985 108.194 43.2904 107.991 43.5754C106.692 45.7333 105.23 47.8505 103.586 49.9066C101.942 51.9831 100.054 53.6728 97.8819 55.0163C97.0091 55.566 96.0347 56.0342 94.898 56.4617C93.7612 56.9096 92.6854 57.1132 91.6299 57.1539C90.6149 57.1539 89.6812 56.9096 88.8489 56.3396C88.0369 55.7899 87.4889 54.7924 87.2656 53.347C87.1032 52.6345 87.0829 51.7795 87.1844 50.8227C88.6865 50.8227 90.2495 50.782 91.8937 50.7209C93.5177 50.6395 95.101 50.4155 96.6234 50.0695C98.1255 49.703 99.5262 49.1127 100.846 48.2984C102.145 47.4841 103.2 46.2626 104.033 44.6747C104.946 42.9647 105.352 41.2953 105.25 39.6057C105.149 37.916 104.641 36.2263 103.667 34.5366C102.348 32.2566 100.764 30.7908 98.8563 30.0783C96.9482 29.3658 94.7153 29.1826 92.0967 29.5083C90.3916 29.7526 88.9098 30.3226 87.631 31.198C86.3115 32.0734 85.1545 33.1116 84.1598 34.3738C83.1652 35.6359 82.2923 36.9999 81.6022 38.5064C80.912 39.9925 80.3639 41.4786 79.9783 42.985C79.7753 43.8197 79.5926 44.6747 79.4708 45.5094C79.2881 46.9955 79.2678 48.4816 79.4302 49.927C78.334 51.637 77.1161 53.286 75.817 54.9146C73.9495 57.2557 71.7775 59.21 69.3213 60.7368C68.3469 61.3476 67.1899 61.8972 65.9111 62.4062C64.6119 62.8947 63.394 63.1594 62.1964 63.1797C61.019 63.2205 59.9635 62.9151 59.0297 62.2636C58.096 61.6529 57.487 60.4925 57.2231 58.8436C57.0404 58.0089 57.0201 57.0725 57.1419 55.9528C57.4058 55.9528 57.6697 55.9528 57.9336 55.9528C59.3951 55.9528 60.9175 55.8917 62.4805 55.8307C64.348 55.7492 66.1547 55.5049 67.8801 55.0978C69.6258 54.6703 71.2091 54.0188 72.7112 53.062C74.193 52.1256 75.411 50.7413 76.3447 48.9294C76.9943 47.708 77.4409 46.4865 77.6439 45.2447C77.7657 44.5526 77.8063 43.84 77.7657 43.1275C77.6439 41.2139 77.0349 39.2799 75.9591 37.346C74.6599 35.1066 73.0766 33.5188 71.27 32.623C71.0061 32.4805 70.7219 32.3787 70.458 32.2769C68.3063 31.483 65.7284 31.2794 62.7647 31.6662C60.8363 31.9309 59.1312 32.5823 57.6494 33.5595C56.1676 34.5366 54.8481 35.7581 53.6911 37.2035C52.534 38.6285 51.5597 40.196 50.7883 41.9061C49.9764 43.6365 49.3674 45.3261 48.9411 47.0362C48.1698 50.0084 47.9668 52.9195 48.3931 55.7289C48.799 58.5382 50.0576 61.0829 52.1281 63.4037C54.1174 65.5412 56.33 66.722 58.8064 66.9255C59.7605 66.9866 60.7145 66.9866 61.7092 66.8645C63.2519 66.7016 64.8149 66.3148 66.3982 65.7244C69.3619 64.5641 72.1023 62.9558 74.6396 60.92C76.974 59.0471 79.0648 56.9096 80.8917 54.5888C81.3992 55.566 82.0487 56.4617 82.8404 57.3371C84.5861 59.21 86.5145 60.2482 88.6865 60.4111C90.8585 60.5943 93.0711 60.2279 95.3446 59.3729C97.9225 58.3753 100.338 56.9503 102.551 55.1792C104.662 53.4895 106.509 51.5963 108.113 49.5198C108.072 50.3138 108.113 51.1077 108.174 51.9016C108.316 53.4488 108.681 54.8942 109.27 56.2785C109.858 57.6425 110.792 58.7011 112.112 59.495C113.045 60.0854 113.959 60.3704 114.852 60.3704C115.095 60.3704 115.339 60.3704 115.562 60.3093C116.679 60.1057 117.775 59.6579 118.851 58.9454C119.927 58.2328 120.921 57.3778 121.794 56.4007C122.708 55.4235 123.499 54.5278 124.169 53.7338C125.245 52.492 126.24 51.2298 127.153 49.9677L127.275 49.8048C127.782 51.7184 128.777 53.4895 130.238 55.1181C131.964 56.991 133.913 58.0293 136.085 58.1921C138.257 58.355 140.489 58.0089 142.743 57.1539C145.341 56.136 147.736 54.7313 149.949 52.9399C152.161 51.1688 154.11 49.1737 155.815 46.9344C155.937 46.7512 156.059 46.568 156.221 46.3644C156.404 46.1812 156.546 46.0183 156.668 45.7944L156.749 45.7129C157.135 45.2447 157.52 44.7561 157.865 44.2268C158.231 43.6975 158.535 43.1682 158.819 42.639C159.063 42.0893 159.185 41.6211 159.144 41.1936V41.1325L159.733 39.9518C160.565 40.2978 161.418 40.5014 162.27 40.5421C162.839 40.5421 163.346 40.5421 163.813 40.5421C164.077 40.5421 164.32 40.5014 164.544 40.4607L163.975 41.9672C162.981 44.2676 162.23 46.5883 161.722 48.9091C161.215 51.2502 161.316 53.632 162.006 56.0749C162.351 57.2557 162.92 58.2736 163.651 59.1489C164.28 59.9022 165.132 60.3297 166.168 60.4315H166.635C167.751 60.4315 168.786 60.1872 169.72 59.5968C170.674 59.0268 171.527 58.3143 172.318 57.4796C173.13 56.6246 173.861 55.7085 174.49 54.7313C175.14 53.7542 175.769 52.8585 176.317 52.0238C176.5 51.7591 176.906 51.2095 177.515 50.3748C178.144 49.5605 178.712 48.6648 179.22 47.7487C179.727 46.7919 180.032 45.9369 180.154 45.1429C180.255 44.3286 179.91 43.84 179.078 43.6772L179.098 43.6161ZM136.694 41.6211C137.242 40.5218 137.81 39.4428 138.439 38.3639C138.723 37.8753 139.17 37.1628 139.759 36.2467C140.347 35.3306 140.997 34.4756 141.748 33.6409C142.479 32.8266 143.25 32.1752 144.062 31.6459C144.854 31.1369 145.605 31.0759 146.315 31.4626C146.863 31.7477 147.026 32.2973 146.863 33.0913C146.681 33.8852 146.396 34.7402 145.97 35.6156C145.524 36.5113 145.036 37.3663 144.529 38.1806C143.981 39.0153 143.595 39.5446 143.372 39.85C142.316 41.1121 141.098 42.1911 139.759 43.1275C138.399 44.0436 136.937 44.6951 135.334 45.0819C135.719 43.8808 136.186 42.7 136.694 41.6007V41.6211ZM89.2955 43.8808C89.8232 42.7611 90.3916 41.6821 91.0412 40.6032C91.3254 40.1146 91.7517 39.4225 92.3403 38.486C92.929 37.5699 93.5989 36.7149 94.3296 35.9006C95.0807 35.0659 95.852 34.4145 96.6437 33.9056C97.4354 33.3966 98.2067 33.3152 98.9172 33.702C99.445 33.987 99.6276 34.5366 99.4653 35.3509C99.2826 36.1449 98.9984 36.9999 98.5518 37.8753C98.1255 38.771 97.6384 39.626 97.1106 40.4403C96.5828 41.2546 96.1971 41.8043 95.9738 42.1097C94.9183 43.3718 93.7004 44.4508 92.3403 45.3669C90.9803 46.3033 89.5188 46.9344 87.9354 47.3212C88.3211 46.1201 88.788 44.9597 89.2955 43.8604V43.8808ZM59.5169 48.0337C60.1056 46.7512 60.7957 45.5094 61.5062 44.3286C61.831 43.7586 62.3384 42.9647 62.988 41.9264C63.6376 40.8882 64.3886 39.8703 65.2412 38.9542C66.0938 38.0178 66.9869 37.2442 67.8801 36.6742C68.4078 36.3688 68.895 36.1856 69.3822 36.1856C69.7476 36.1856 70.113 36.2874 70.458 36.4706C71.067 36.7963 71.27 37.4274 71.067 38.3231C70.864 39.2189 70.5392 40.196 70.0521 41.2139C69.5446 42.2318 69.0168 43.2293 68.4078 44.1454C67.7989 45.1022 67.3523 45.7129 67.0681 46.0387C65.8705 47.4637 64.4901 48.7055 62.9677 49.7437C61.425 50.8023 59.7402 51.5352 57.9336 51.9831C58.3802 50.6191 58.9079 49.2755 59.4966 48.0133L59.5169 48.0337Z" fill="#4528B6"/>
<path d="M167.71 65.724C167.06 65.663 166.39 65.6019 165.741 65.5408C157.5 64.808 148.771 64.5229 139.921 64.5229C133.932 64.5229 127.883 64.6655 121.915 64.8894C119.642 64.9912 117.368 65.0726 115.115 65.1947C97.2928 66.1312 80.3431 67.8412 67.3924 69.4088C65.5655 69.6123 63.8198 69.8566 62.1756 70.0398C50.5646 71.526 43.2569 72.7067 43.2163 72.727C41.3082 73.0324 40.0091 74.8442 40.3136 76.7578C40.5978 78.4679 42.0593 79.669 43.7441 79.669H43.9065L44.3328 79.6283C44.3328 79.6283 44.9214 79.5265 46.0379 79.3636C47.1543 79.2008 48.7782 78.9565 50.869 78.6511C57.1211 77.735 67.4533 76.3507 79.9981 75.0275C92.5225 73.7042 107.219 72.4828 122.24 71.872C128.147 71.6481 134.095 71.5056 139.961 71.5056C149.38 71.5056 158.575 71.8517 167.101 72.666H167.446C169.232 72.666 170.734 71.3224 170.917 69.5106V69.1848C170.917 67.4137 169.557 65.8665 167.771 65.7037L167.71 65.724Z" fill="#4528B6"/>
<path d="M46.6059 45.6724C48.0472 41.2344 49.6305 36.8372 51.3965 32.4196C52.7565 28.7552 54.3195 25.1316 56.1262 21.5079C57.8922 17.8843 60.2265 14.7085 63.1293 11.9806C64.266 10.8406 64.875 9.53768 64.9968 8.09229C65.1186 6.64691 64.8344 5.30331 64.2051 4.08185C63.5759 2.8604 62.5812 1.92395 61.3024 1.21143C60.0236 0.539634 58.5823 0.376774 56.9787 0.763568C55.7608 1.06893 54.6646 1.59823 53.6903 2.37182C52.7159 3.12505 51.7822 4.02078 50.9499 5.03866C50.1177 6.07689 49.3666 7.1762 48.7373 8.31623C48.0878 9.45625 47.5397 10.5148 47.0728 11.5124C45.185 13.0392 43.0536 14.2606 40.6989 15.1767C38.3443 16.0928 36.0708 16.8664 33.8582 17.4568C32.1125 17.925 30.3668 18.3118 28.6414 18.6579C26.8956 19.004 25.1499 19.3704 23.4042 19.7368C21.6585 20.1236 19.9534 20.6529 18.2686 21.3451C16.6041 22.0169 15.0411 22.9533 13.5998 24.0933C11.164 26.1495 9.37764 28.7349 8.2003 31.8496C7.00266 34.9846 6.81997 38.1401 7.57103 41.3362C7.87552 42.4762 8.3424 43.5959 8.93107 44.6952C9.54003 45.8149 10.2911 46.731 11.2045 47.4435C12.118 48.1763 13.1532 48.6242 14.29 48.8074C15.4267 48.9907 16.6447 48.8074 17.9438 48.1967C19.5271 47.4231 20.5015 46.4663 20.8872 45.3263C21.2728 44.1863 21.4352 42.9445 21.354 41.6212C21.2728 40.2776 21.1916 38.9544 21.1307 37.6108C21.0495 36.2875 21.354 35.005 22.0442 33.7835C22.8156 32.2771 23.8914 30.8928 25.3123 29.6917C26.6927 28.4702 28.2151 27.3709 29.8593 26.3937C31.4832 25.4166 33.1477 24.4801 34.8731 23.6455C36.5783 22.8108 38.1616 21.9965 39.6028 21.2433C40.3539 20.8565 41.1049 20.4697 41.8763 20.0422C42.6273 19.6147 43.419 19.1872 44.2716 18.7189C43.2972 21.854 42.5056 25.0094 41.9372 28.2056C41.3485 31.4017 40.8004 34.6182 40.2727 37.8551C39.7246 41.1123 39.1562 44.3288 38.527 47.5656C37.8774 50.8025 36.9842 53.9579 35.8475 56.9912C35.3806 58.3551 34.8528 59.7394 34.183 61.1034C33.6958 62.1213 33.168 63.1188 32.5388 64.0553C32.3358 64.3606 32.1125 64.666 31.9095 64.9917C31.0366 66.2132 30.0826 67.3125 29.0067 68.2896C27.9309 69.2668 26.713 70.0404 25.3326 70.5697C23.3636 71.3229 21.2525 71.669 18.9588 71.5876C16.6853 71.5061 14.7772 70.6104 13.275 68.8393C12.118 67.4753 11.7323 66.2132 12.0774 65.0324C12.4022 63.8517 13.0721 62.6506 14.0667 61.4291C15.2034 59.9837 15.6906 58.4773 15.4876 56.9097C15.2846 55.3626 14.696 54.019 13.7216 52.9197C12.7473 51.8204 11.509 51.0671 10.0272 50.6803C9.58063 50.5582 9.15435 50.5175 8.70778 50.5175C7.63193 50.5175 6.55609 50.8228 5.41934 51.4946C3.81573 52.4107 2.59779 53.6729 1.76553 55.3219C0.933274 56.9505 0.405501 58.7216 0.161913 60.6148C-0.0410764 62.5284 -0.0207775 64.4013 0.344604 66.2539C0.689686 68.1268 1.27836 69.7961 2.11061 71.2211C3.32855 73.2162 4.81038 74.7837 6.59668 75.9644C8.38299 77.1452 10.2911 77.9595 12.3413 78.3666C14.3915 78.7941 16.5026 78.8756 18.6746 78.5906C20.8263 78.3259 22.9373 77.7763 25.0078 76.9416C29.0879 75.2519 32.4373 72.7887 35.0152 69.5111C35.9896 68.2896 36.903 67.0071 37.7556 65.7042C39.1765 63.526 40.4351 61.2256 41.5109 58.7826C43.4799 54.4261 45.185 50.0696 46.6465 45.652L46.6059 45.6724Z" fill="#4528B6"/>
</g>
<defs>
<clipPath id="clip0_1_314">
<rect width="180.194" height="79.1095" fill="white" transform="translate(0 0.580078)"/>
</clipPath>
</defs>
</svg>
